<?xml version="1.0" encoding="utf-8"?>
<!-- Generator: Adobe Illustrator 17.1.0, SVG Export Plug-In . SVG Version: 6.00 Build 0)  -->
<!DOCTYPE svg PUBLIC "-//W3C//DTD SVG 1.1//EN" "http://www.w3.org/Graphics/SVG/1.1/DTD/svg11.dtd">
<svg version="1.1" id="Слой_1" xmlns="http://www.w3.org/2000/svg" xmlns:xlink="http://www.w3.org/1999/xlink" x="0px" y="0px"
	 viewBox="0 0 15 16" enable-background="new 0 0 15 16" xml:space="preserve">
<path fill="#989898" d="M5,6h2v2H5V6z M8,6h2v2H8V6z M11,6h2v2h-2V6z M2,12h2v2H2V12z M5,12h2v2H5V12z M8,12h2v2H8V12z M5,9h2v2H5V9
	z M8,9h2v2H8V9z M11,9h2v2h-2V9z M2,9h2v2H2V9z M13,0v1h-2V0H4v1H2V0H0v16h15V0H13z M14,15H1V4h13V15z"/>
</svg>
