<?xml version="1.0" encoding="utf-8"?>
<!-- Generator: Adobe Illustrator 17.1.0, SVG Export Plug-In . SVG Version: 6.00 Build 0)  -->
<!DOCTYPE svg PUBLIC "-//W3C//DTD SVG 1.1//EN" "http://www.w3.org/Graphics/SVG/1.1/DTD/svg11.dtd">
<svg version="1.1" id="Слой_1" xmlns="http://www.w3.org/2000/svg" xmlns:xlink="http://www.w3.org/1999/xlink" x="0px" y="0px"
	 viewBox="0 0 30 30" enable-background="new 0 0 30 30" xml:space="preserve">
<circle fill="#989898" cx="15" cy="15" r="15"/>
<path fill="#FFFFFF" d="M14.8,22L14.8,22c-0.6,0-1-0.4-1-1V9c0-0.6,0.4-1,1-1h0c0.6,0,1,0.4,1,1v12C15.8,21.6,15.3,22,14.8,22z"/>
<path fill="#FFFFFF" d="M21.8,15L21.8,15c0,0.6-0.4,1-1,1h-12c-0.6,0-1-0.4-1-1v0c0-0.6,0.4-1,1-1h12C21.3,14,21.8,14.4,21.8,15z"/>
</svg>
