<?xml version="1.0" encoding="utf-8"?>
<!-- Generator: Adobe Illustrator 17.1.0, SVG Export Plug-In . SVG Version: 6.00 Build 0)  -->
<!DOCTYPE svg PUBLIC "-//W3C//DTD SVG 1.1//EN" "http://www.w3.org/Graphics/SVG/1.1/DTD/svg11.dtd">
<svg version="1.1" id="Layer_1" xmlns="http://www.w3.org/2000/svg" xmlns:xlink="http://www.w3.org/1999/xlink" x="0px" y="0px"
	 viewBox="0 0 150 100" enable-background="new 0 0 150 100" xml:space="preserve">
<g>
	<linearGradient id="SVGID_1_" gradientUnits="userSpaceOnUse" x1="12.7358" y1="88.629" x2="164.4115" y2="1.0591">
		<stop  offset="0" style="stop-color:#821B1E"/>
		<stop  offset="0.2136" style="stop-color:#9F1F22"/>
		<stop  offset="0.5255" style="stop-color:#C82026"/>
		<stop  offset="0.6868" style="stop-color:#DA1F26"/>
	</linearGradient>
	<path fill="url(#SVGID_1_)" d="M1,10.2C1,11,1,100,1,100s133.6,0,139.7,0c-0.1-24.2-0.1-68.6,8.3-98.1C66.5,14.4,17.6,10.2,1,10.2z
		"/>
	<g>
		<path fill="#FFFFFF" d="M20.8,79.6c-0.2-0.1-0.5-0.2-0.9-0.2c-0.9,0-1.5,0.8-1.5,1.9c0,1.2,0.6,1.9,1.5,1.9c0.4,0,0.7-0.1,0.9-0.2
			l0.2,1.2c-0.3,0.1-0.8,0.3-1.4,0.3c-1.6,0-2.7-1.2-2.7-3.2c0-1.9,1.1-3.3,2.9-3.3c0.5,0,0.9,0.1,1.2,0.2L20.8,79.6z"/>
	</g>
	<g>
		<g>
			<g>
				<path fill="#FFFFFF" d="M96.2,81.8c0,1.1,0.7,1.5,1.6,1.5c0.6,0,1-0.1,1.4-0.3l0.2,1.1c-0.5,0.2-1.1,0.4-1.9,0.4
					c-1.8,0-2.8-1.2-2.8-3.2c0-1.8,0.9-3.4,2.6-3.4c1.4,0,2.3,1.1,2.3,3.1c0,0.2,0,0.5,0,0.7H96.2z M98.2,80.7c0-0.7-0.2-1.4-1-1.4
					c-0.7,0-1,0.8-1.1,1.4H98.2z"/>
			</g>
			<g>
				<path fill="#FFFFFF" d="M100.6,83c0.3,0.2,0.9,0.4,1.3,0.4c0.5,0,0.8-0.2,0.8-0.6c0-0.4-0.2-0.6-0.8-0.9
					c-1.1-0.5-1.5-1.1-1.5-1.8c0-1.1,0.8-2,2.1-2c0.6,0,1.1,0.2,1.4,0.3l-0.3,1.2c-0.2-0.1-0.6-0.3-1.1-0.3c-0.5,0-0.7,0.3-0.7,0.6
					c0,0.3,0.2,0.5,0.9,0.8c1,0.4,1.4,1,1.4,1.9c0,1.2-0.8,2-2.3,2c-0.6,0-1.2-0.2-1.6-0.4L100.6,83z"/>
			</g>
			<g>
				<path fill="#FFFFFF" d="M105.5,78.2l0-1.6h1.5v1.6h1.3v1.2H107v2.7c0,0.8,0.2,1.1,0.7,1.1c0.2,0,0.3,0,0.5-0.1l0,1.3
					c-0.2,0.1-0.6,0.1-1,0.1c-1.6,0-1.7-1.6-1.7-2.3v-2.9h-0.8v-1.2H105.5z"/>
			</g>
			<g>
				<path fill="#FFFFFF" d="M109.3,78.6c0.4-0.2,1.1-0.5,2-0.5c1.8,0,2.3,1.2,2.3,2.6V83c0,0.6,0,1.1,0.1,1.5h-1.4l-0.1-0.7h0
					c-0.3,0.5-0.9,0.8-1.5,0.8c-1.1,0-1.7-0.9-1.7-1.9c0-1.6,1.3-2.4,3.1-2.4c0-0.6-0.2-1.1-1-1.1c-0.5,0-1,0.2-1.4,0.4L109.3,78.6z
					 M112,81.4c-0.8,0-1.7,0.2-1.7,1.1c0,0.6,0.3,0.9,0.7,0.9c0.4,0,1-0.3,1-1.1V81.4z"/>
			</g>
			<g>
				<path fill="#FFFFFF" d="M115.1,78.2l0-1.6h1.5v1.6h1.3v1.2h-1.3v2.7c0,0.8,0.2,1.1,0.7,1.1c0.2,0,0.3,0,0.5-0.1l0,1.3
					c-0.2,0.1-0.6,0.1-1,0.1c-1.6,0-1.7-1.6-1.7-2.3v-2.9h-0.8v-1.2H115.1z"/>
			</g>
			<g>
				<path fill="#FFFFFF" d="M120,81.8c0,1.1,0.7,1.5,1.6,1.5c0.6,0,1-0.1,1.4-0.3l0.2,1.1c-0.5,0.2-1.1,0.4-1.9,0.4
					c-1.8,0-2.8-1.2-2.8-3.2c0-1.8,0.9-3.4,2.6-3.4c1.4,0,2.3,1.1,2.3,3.1c0,0.2,0,0.5,0,0.7H120z M122,80.7c0-0.7-0.2-1.4-1-1.4
					c-0.7,0-1,0.8-1.1,1.4H122z"/>
			</g>
		</g>
	</g>
	<g>
		<g>
			<g>
				<path fill="#FFFFFF" d="M75.4,79c0.3-0.8,0.9-1.2,1.4-1.2c0.1,0,0.2,0,0.3,0v1.6c-0.1,0-0.2,0-0.4,0c-0.7,0-1.2,0.5-1.2,1.6v3.2
					h-1.5v-4.3c0-0.8,0-1.4,0-2h1.3L75.4,79L75.4,79z"/>
			</g>
			<g>
				<path fill="#FFFFFF" d="M79.1,81.6c0,1.1,0.7,1.5,1.5,1.5c0.6,0,1-0.1,1.4-0.3l0.2,1.1c-0.5,0.2-1.1,0.4-1.8,0.4
					c-1.7,0-2.7-1.2-2.7-3.2c0-1.8,0.9-3.3,2.6-3.3c1.4,0,2.3,1.1,2.3,3.1c0,0.2,0,0.5,0,0.7H79.1z M81.2,80.4c0-0.7-0.2-1.5-1-1.5
					c-0.7,0-1,0.8-1.1,1.5H81.2z"/>
			</g>
			<g>
				<path fill="#FFFFFF" d="M83.6,78.3c0.4-0.2,1.1-0.5,2-0.5c1.8,0,2.2,1.2,2.2,2.6v2.3c0,0.6,0,1.1,0.1,1.5h-1.3l-0.1-0.7h0
					c-0.3,0.5-0.9,0.8-1.5,0.8c-1,0-1.7-0.9-1.7-1.9c0-1.6,1.3-2.4,3.1-2.4c0-0.6-0.2-1.1-1-1.1c-0.5,0-1,0.2-1.4,0.4L83.6,78.3z
					 M86.4,81.1c-0.8,0-1.7,0.2-1.7,1.1c0,0.6,0.3,0.9,0.7,0.9c0.4,0,0.9-0.3,0.9-1.1V81.1z"/>
			</g>
			<g>
				<path fill="#FFFFFF" d="M90.7,75.1v9h-1.5v-9H90.7z"/>
			</g>
		</g>
	</g>
	<g>
		<path fill="#FFFFFF" d="M26.8,81.3c0,2.4-1.4,3.3-2.6,3.3c-1.5,0-2.6-1.2-2.6-3.2c0-2.1,1.1-3.3,2.7-3.3
			C25.8,78.1,26.8,79.4,26.8,81.3z M24.2,79.3c-0.8,0-1.1,1.1-1.1,2c0,1.1,0.4,2,1.1,2c0.7,0,1.1-0.9,1.1-2
			C25.3,80.3,25,79.3,24.2,79.3z"/>
	</g>
	<g>
		<path fill="#FFFFFF" d="M32.3,79.1c0.5-0.8,1-1,1.7-1c1,0,1.7,0.8,1.7,2.6v3.8h-1.5v-3.5c0-0.9-0.2-1.5-0.8-1.5
			c-0.4,0-0.9,0.4-0.9,1.2v3.8h-1.5v-3.7c0-0.7-0.2-1.3-0.8-1.3c-0.4,0-0.9,0.4-0.9,1.3v3.8h-1.5v-4.4c0-0.7,0-1.3,0-1.9h1.3
			l0.1,0.8h0c0.3-0.4,0.8-1,1.6-1C31.5,78.1,32,78.5,32.3,79.1L32.3,79.1z"/>
	</g>
	<g>
		<path fill="#FFFFFF" d="M41.4,79.1c0.5-0.8,1-1,1.7-1c1,0,1.7,0.8,1.7,2.6v3.8h-1.5v-3.5c0-0.9-0.2-1.5-0.8-1.5
			c-0.4,0-0.9,0.4-0.9,1.2v3.8h-1.5v-3.7c0-0.7-0.2-1.3-0.8-1.3c-0.4,0-0.9,0.4-0.9,1.3v3.8H37v-4.4c0-0.7,0-1.3,0-1.9h1.3l0.1,0.8
			h0c0.3-0.4,0.8-1,1.6-1C40.6,78.1,41.1,78.5,41.4,79.1L41.4,79.1z"/>
	</g>
	<g>
		<path fill="#FFFFFF" d="M47.2,81.8c0,1.1,0.7,1.5,1.5,1.5c0.6,0,1-0.1,1.4-0.3l0.2,1.1c-0.5,0.2-1.1,0.4-1.8,0.4
			c-1.7,0-2.7-1.2-2.7-3.2c0-1.8,0.9-3.4,2.6-3.4c1.4,0,2.2,1.1,2.2,3.1c0,0.2,0,0.5,0,0.7H47.2z M49.2,80.7c0-0.7-0.2-1.4-1-1.4
			c-0.7,0-1,0.8-1.1,1.4H49.2z"/>
	</g>
	<g>
		<path fill="#FFFFFF" d="M53,79.3c0.3-0.8,0.9-1.2,1.4-1.2c0.1,0,0.2,0,0.3,0v1.6c-0.1,0-0.2,0-0.4,0c-0.7,0-1.2,0.5-1.2,1.6v3.2
			h-1.5v-4.3c0-0.8,0-1.4,0-2h1.3L53,79.3L53,79.3z"/>
	</g>
	<g>
		<path fill="#FFFFFF" d="M59.1,79.6c-0.2-0.1-0.5-0.2-0.9-0.2c-0.9,0-1.5,0.8-1.5,1.9c0,1.2,0.6,1.9,1.5,1.9c0.4,0,0.7-0.1,0.9-0.2
			l0.2,1.2c-0.3,0.1-0.8,0.3-1.4,0.3c-1.6,0-2.7-1.2-2.7-3.2c0-1.9,1.1-3.3,2.9-3.3c0.5,0,0.9,0.1,1.2,0.2L59.1,79.6z"/>
	</g>
	<g>
		<rect x="60.3" y="78.2" fill="#FFFFFF" width="1.5" height="6.3"/>
	</g>
	<g>
		<rect x="60.3" y="75.5" fill="#FFFFFF" width="1.5" height="1.5"/>
	</g>
	<g>
		<path fill="#FFFFFF" d="M63.2,78.6c0.4-0.2,1.1-0.5,1.9-0.5c1.7,0,2.2,1.2,2.2,2.6V83c0,0.6,0,1.1,0.1,1.5h-1.3L66,83.8h0
			c-0.3,0.5-0.9,0.8-1.5,0.8c-1,0-1.7-0.9-1.7-1.9c0-1.6,1.3-2.4,3.1-2.4c0-0.6-0.2-1.1-1-1.1c-0.5,0-1,0.2-1.4,0.4L63.2,78.6z
			 M65.9,81.4c-0.8,0-1.6,0.2-1.6,1.1c0,0.6,0.3,0.9,0.7,0.9c0.4,0,0.9-0.3,0.9-1.1V81.4z"/>
	</g>
	<g>
		<path fill="#FFFFFF" d="M70.1,75.4v9h-1.5v-9H70.1z"/>
	</g>
	<g>
		<path fill="#FFFFFF" d="M20.5,79.7c-0.2-0.1-0.5-0.2-0.9-0.2c-0.9,0-1.5,0.8-1.5,1.9c0,1.2,0.6,1.9,1.5,1.9c0.4,0,0.7-0.1,0.9-0.2
			l0.2,1.2c-0.3,0.1-0.8,0.3-1.4,0.3c-1.6,0-2.7-1.2-2.7-3.2c0-1.9,1.1-3.3,2.9-3.3c0.5,0,0.9,0.1,1.2,0.2L20.5,79.7z"/>
	</g>
	<path fill="#FFFFFF" d="M97.1,55.1c1-1,3.3-2.6,5.6-2.6c2.8,0,3.9,2.2,3.9,6.5v9.4h-4.4v-9c0-1.9,0.3-3.8-2-3.4
		c-1.2,0.3-2.2,0.8-2.3,3.2v9.1h-4.5V57.6c0-1.8-0.1-3.3-0.1-4.6h3.6L97.1,55.1L97.1,55.1z"/>
	<path fill="#FFFFFF" d="M123.6,60.8c0,6.3-3.8,8.7-7.2,8.7c-4.1,0-7.1-3.1-7.1-8.5c0-5.5,3.1-8.7,7.3-8.7
		C120.9,52.4,123.6,55.8,123.6,60.8z M116.5,55.6c-2.3,0-3.1,2.8-3.1,5.3c0,2.9,1.1,5.3,3.1,5.3c1.9,0,3-2.4,3-5.3
		C119.5,58.4,118.6,55.6,116.5,55.6z"/>
	<path fill="#FFFFFF" d="M73.3,56.7c-0.5-0.2-1-1-2.1-1c-2.5,0-3.4,2-3.4,4.6c0,3,1.1,4.7,3.4,4.7c1,0,1.2-0.4,1.8-0.8l2,2.3
		c-0.6,0.7-3.1,2.1-4.7,2.1c-4.4,0-6.7-3-6.7-7.8c0-4.5,1.1-8.9,7.4-8.4c1.3,0.1,2.7,0.6,4,1.7L73.3,56.7z"/>
	<path fill="#FFFFFF" d="M77.6,53.4c1.2-0.6,3.4-1.4,6.2-1.4c5.6,0,6.4,3.2,6.4,6.7v5.9c0,1.4,0.1,2.8,0.3,3.8h-3.6l-0.3-1.7h-0.1
		c-1,1.3-2.8,1.7-4.8,1.7c-3.3,0-4.9-1.8-4.9-4.4c0-4.1,3.6-6.2,9.3-6.2c0-1.6-0.6-2.8-3.2-2.8c-1.7,0-3.3,0.5-4.4,1.1L77.6,53.4z
		 M86.3,60.6c-2.6,0-5.3,0.5-5.3,2.9c0,1.5,1.1,2.2,2.3,2.2c1.1,0,3-0.7,3-2.8V60.6z"/>
	<path fill="#FFFFFF" d="M17.9,53.8c1.2-0.6,3.4-1.4,6.2-1.4c5.6,0,6.4,3.2,6.4,6.7v5.9c0,1.4,0.1,2.8,0.3,3.8h-3.6L27,67.2h-0.1
		c-1,1.3-2.8,1.7-4.8,1.7c-3.3,0-4.9-1.8-4.9-4.4c0-4.1,3.6-6.2,9.3-6.2c0-1.6-0.6-2.8-3.2-2.8c-1.6,0-3.3,0.5-4.4,1.1L17.9,53.8z
		 M26.6,61c-2.6,0-5.3,0.5-5.3,2.9c0,1.5,1.1,2.2,2.3,2.2c1.1,0,3-0.7,3-2.8V61z"/>
	<path fill="#FFFFFF" d="M44.8,52.9v15.6h4.5v-9.9c0,0,3.1-2.6,5-3.1c-0.1-0.3-0.7-2.2-1.1-3.2c-0.9-0.4-4.4,2.5-4.4,2.5l-0.1-2.1
		L44.8,52.9z"/>
	<path fill="#FFFFFF" d="M33.9,52.9v15.6h4.5v-9.9c0,0,3.1-2.6,5-3.1c-0.1-0.3-0.7-2.2-1.1-3.2c-0.9-0.4-4.4,2.5-4.4,2.5l-0.1-2.1
		L33.9,52.9z"/>
	<rect x="55.9" y="52.8" fill="#FFFFFF" width="4.5" height="15.6"/>
	<rect x="55.9" y="46.2" fill="#FFFFFF" width="4.5" height="4"/>
</g>
</svg>
