<?xml version="1.0" encoding="utf-8"?>
<!-- Generator: Adobe Illustrator 17.1.0, SVG Export Plug-In . SVG Version: 6.00 Build 0)  -->
<!DOCTYPE svg PUBLIC "-//W3C//DTD SVG 1.1//EN" "http://www.w3.org/Graphics/SVG/1.1/DTD/svg11.dtd">
<svg version="1.1" id="Слой_1" xmlns="http://www.w3.org/2000/svg" xmlns:xlink="http://www.w3.org/1999/xlink" x="0px" y="0px"
	 viewBox="0 0 16 16" enable-background="new 0 0 16 16" xml:space="preserve">
<path fill="#989898" d="M10.3,11.7L7,8.4V4h2v3.6l2.7,2.7L10.3,11.7z M8,0C3.6,0,0,3.6,0,8c0,4.4,3.6,8,8,8s8-3.6,8-8
	C16,3.6,12.4,0,8,0z M8,14c-3.3,0-6-2.7-6-6c0-3.3,2.7-6,6-6s6,2.7,6,6C14,11.3,11.3,14,8,14z"/>
</svg>
